<mxfile host="app.diagrams.net" agent="Mozilla/5.0 (Windows NT 10.0; Win64; x64) AppleWebKit/537.36 (KHTML, like Gecko) Chrome/137.0.0.0 Safari/537.36" version="27.2.0">
  <diagram name="Page-1" id="t7T0tNTZysdr0f6abCmA">
    <mxGraphModel dx="983" dy="536" grid="1" gridSize="10" guides="1" tooltips="1" connect="1" arrows="1" fold="1" page="1" pageScale="1" pageWidth="1169" pageHeight="827" math="0" shadow="0">
      <root>
        <mxCell id="0" />
        <mxCell id="1" parent="0" />
        <mxCell id="yySmz_rd_nI9GgxJzsuN-12" value="" style="endArrow=classic;html=1;rounded=0;" edge="1" parent="1">
          <mxGeometry width="50" height="50" relative="1" as="geometry">
            <mxPoint x="170" y="270" as="sourcePoint" />
            <mxPoint x="235" y="210" as="targetPoint" />
          </mxGeometry>
        </mxCell>
        <mxCell id="yySmz_rd_nI9GgxJzsuN-7" style="edgeStyle=orthogonalEdgeStyle;rounded=0;orthogonalLoop=1;jettySize=auto;html=1;entryX=0;entryY=0.5;entryDx=0;entryDy=0;" edge="1" parent="1" source="yySmz_rd_nI9GgxJzsuN-1" target="yySmz_rd_nI9GgxJzsuN-4">
          <mxGeometry relative="1" as="geometry" />
        </mxCell>
        <mxCell id="yySmz_rd_nI9GgxJzsuN-8" style="edgeStyle=orthogonalEdgeStyle;rounded=0;orthogonalLoop=1;jettySize=auto;html=1;" edge="1" parent="1" target="yySmz_rd_nI9GgxJzsuN-1">
          <mxGeometry relative="1" as="geometry">
            <mxPoint x="120" y="160" as="sourcePoint" />
          </mxGeometry>
        </mxCell>
        <mxCell id="yySmz_rd_nI9GgxJzsuN-49" value="x(n)" style="edgeLabel;html=1;align=center;verticalAlign=middle;resizable=0;points=[];" vertex="1" connectable="0" parent="yySmz_rd_nI9GgxJzsuN-8">
          <mxGeometry x="-0.2942" relative="1" as="geometry">
            <mxPoint as="offset" />
          </mxGeometry>
        </mxCell>
        <mxCell id="yySmz_rd_nI9GgxJzsuN-11" style="edgeStyle=orthogonalEdgeStyle;rounded=0;orthogonalLoop=1;jettySize=auto;html=1;" edge="1" parent="1" source="yySmz_rd_nI9GgxJzsuN-1">
          <mxGeometry relative="1" as="geometry">
            <mxPoint x="200" y="220" as="targetPoint" />
          </mxGeometry>
        </mxCell>
        <mxCell id="yySmz_rd_nI9GgxJzsuN-16" style="edgeStyle=orthogonalEdgeStyle;rounded=0;orthogonalLoop=1;jettySize=auto;html=1;" edge="1" parent="1" source="yySmz_rd_nI9GgxJzsuN-1">
          <mxGeometry relative="1" as="geometry">
            <mxPoint x="360" y="219.9999999999999" as="targetPoint" />
          </mxGeometry>
        </mxCell>
        <mxCell id="yySmz_rd_nI9GgxJzsuN-1" value="&lt;div&gt;Z&lt;sup&gt;-1&lt;/sup&gt;&lt;/div&gt;" style="whiteSpace=wrap;html=1;aspect=fixed;fillColor=#f5f5f5;fontColor=#333333;strokeColor=#666666;" vertex="1" parent="1">
          <mxGeometry x="240" y="120" width="80" height="80" as="geometry" />
        </mxCell>
        <mxCell id="yySmz_rd_nI9GgxJzsuN-78" style="edgeStyle=orthogonalEdgeStyle;rounded=0;orthogonalLoop=1;jettySize=auto;html=1;" edge="1" parent="1" source="yySmz_rd_nI9GgxJzsuN-4" target="yySmz_rd_nI9GgxJzsuN-76">
          <mxGeometry relative="1" as="geometry" />
        </mxCell>
        <mxCell id="yySmz_rd_nI9GgxJzsuN-4" value="Z&lt;sup&gt;-1&lt;/sup&gt;" style="whiteSpace=wrap;html=1;aspect=fixed;fillColor=#f5f5f5;fontColor=#333333;strokeColor=#666666;" vertex="1" parent="1">
          <mxGeometry x="400" y="120" width="80" height="80" as="geometry" />
        </mxCell>
        <mxCell id="yySmz_rd_nI9GgxJzsuN-83" style="edgeStyle=orthogonalEdgeStyle;rounded=0;orthogonalLoop=1;jettySize=auto;html=1;" edge="1" parent="1" source="yySmz_rd_nI9GgxJzsuN-19">
          <mxGeometry relative="1" as="geometry">
            <mxPoint x="500" y="340.0000000000001" as="targetPoint" />
          </mxGeometry>
        </mxCell>
        <mxCell id="yySmz_rd_nI9GgxJzsuN-19" value="" style="ellipse;whiteSpace=wrap;html=1;aspect=fixed;fillColor=#f5f5f5;fontColor=#333333;strokeColor=#666666;" vertex="1" parent="1">
          <mxGeometry x="340" y="320" width="40" height="40" as="geometry" />
        </mxCell>
        <mxCell id="yySmz_rd_nI9GgxJzsuN-22" value="" style="endArrow=none;html=1;rounded=0;entryX=0.5;entryY=0;entryDx=0;entryDy=0;" edge="1" parent="1" target="yySmz_rd_nI9GgxJzsuN-19">
          <mxGeometry width="50" height="50" relative="1" as="geometry">
            <mxPoint x="360" y="360" as="sourcePoint" />
            <mxPoint x="410" y="310" as="targetPoint" />
          </mxGeometry>
        </mxCell>
        <mxCell id="yySmz_rd_nI9GgxJzsuN-23" value="" style="endArrow=none;html=1;rounded=0;entryX=0;entryY=0.5;entryDx=0;entryDy=0;exitX=1;exitY=0.5;exitDx=0;exitDy=0;" edge="1" parent="1" source="yySmz_rd_nI9GgxJzsuN-19" target="yySmz_rd_nI9GgxJzsuN-19">
          <mxGeometry width="50" height="50" relative="1" as="geometry">
            <mxPoint x="390" y="380" as="sourcePoint" />
            <mxPoint x="390" y="340" as="targetPoint" />
          </mxGeometry>
        </mxCell>
        <mxCell id="yySmz_rd_nI9GgxJzsuN-32" style="edgeStyle=orthogonalEdgeStyle;rounded=0;orthogonalLoop=1;jettySize=auto;html=1;entryX=0.5;entryY=0;entryDx=0;entryDy=0;" edge="1" parent="1" source="yySmz_rd_nI9GgxJzsuN-27">
          <mxGeometry relative="1" as="geometry">
            <mxPoint x="760" y="220" as="targetPoint" />
          </mxGeometry>
        </mxCell>
        <mxCell id="yySmz_rd_nI9GgxJzsuN-50" value="x(n - N + 1)" style="edgeLabel;html=1;align=center;verticalAlign=middle;resizable=0;points=[];" vertex="1" connectable="0" parent="yySmz_rd_nI9GgxJzsuN-32">
          <mxGeometry x="-0.7228" y="-2" relative="1" as="geometry">
            <mxPoint x="19" y="-2" as="offset" />
          </mxGeometry>
        </mxCell>
        <mxCell id="yySmz_rd_nI9GgxJzsuN-84" style="edgeStyle=orthogonalEdgeStyle;rounded=0;orthogonalLoop=1;jettySize=auto;html=1;dashed=1;dashPattern=8 8;" edge="1" parent="1" target="yySmz_rd_nI9GgxJzsuN-27">
          <mxGeometry relative="1" as="geometry">
            <mxPoint x="520" y="160" as="sourcePoint" />
          </mxGeometry>
        </mxCell>
        <mxCell id="yySmz_rd_nI9GgxJzsuN-27" value="Z&lt;sup&gt;-1&lt;/sup&gt;" style="whiteSpace=wrap;html=1;aspect=fixed;fillColor=#f5f5f5;fontColor=#333333;strokeColor=#666666;" vertex="1" parent="1">
          <mxGeometry x="600" y="120" width="80" height="80" as="geometry" />
        </mxCell>
        <mxCell id="yySmz_rd_nI9GgxJzsuN-42" style="edgeStyle=orthogonalEdgeStyle;rounded=0;orthogonalLoop=1;jettySize=auto;html=1;" edge="1" parent="1" source="yySmz_rd_nI9GgxJzsuN-39">
          <mxGeometry relative="1" as="geometry">
            <mxPoint x="660" y="423.0000000000001" as="targetPoint" />
          </mxGeometry>
        </mxCell>
        <mxCell id="yySmz_rd_nI9GgxJzsuN-45" value="e(n)" style="edgeLabel;html=1;align=center;verticalAlign=middle;resizable=0;points=[];" vertex="1" connectable="0" parent="yySmz_rd_nI9GgxJzsuN-42">
          <mxGeometry x="-0.0857" y="-1" relative="1" as="geometry">
            <mxPoint as="offset" />
          </mxGeometry>
        </mxCell>
        <mxCell id="yySmz_rd_nI9GgxJzsuN-43" style="edgeStyle=orthogonalEdgeStyle;rounded=0;orthogonalLoop=1;jettySize=auto;html=1;" edge="1" parent="1" target="yySmz_rd_nI9GgxJzsuN-39">
          <mxGeometry relative="1" as="geometry">
            <mxPoint x="860" y="423.0000000000001" as="sourcePoint" />
          </mxGeometry>
        </mxCell>
        <mxCell id="yySmz_rd_nI9GgxJzsuN-44" value="d(n)" style="edgeLabel;html=1;align=center;verticalAlign=middle;resizable=0;points=[];" vertex="1" connectable="0" parent="yySmz_rd_nI9GgxJzsuN-43">
          <mxGeometry x="-0.1028" relative="1" as="geometry">
            <mxPoint as="offset" />
          </mxGeometry>
        </mxCell>
        <mxCell id="yySmz_rd_nI9GgxJzsuN-39" value="" style="ellipse;whiteSpace=wrap;html=1;aspect=fixed;fillColor=#f5f5f5;fontColor=#333333;strokeColor=#666666;" vertex="1" parent="1">
          <mxGeometry x="740" y="403" width="40" height="40" as="geometry" />
        </mxCell>
        <mxCell id="yySmz_rd_nI9GgxJzsuN-40" value="" style="endArrow=none;html=1;rounded=0;entryX=0.5;entryY=0;entryDx=0;entryDy=0;" edge="1" parent="1" target="yySmz_rd_nI9GgxJzsuN-39">
          <mxGeometry width="50" height="50" relative="1" as="geometry">
            <mxPoint x="760" y="443" as="sourcePoint" />
            <mxPoint x="810" y="393" as="targetPoint" />
          </mxGeometry>
        </mxCell>
        <mxCell id="yySmz_rd_nI9GgxJzsuN-41" value="" style="endArrow=none;html=1;rounded=0;entryX=0;entryY=0.5;entryDx=0;entryDy=0;exitX=1;exitY=0.5;exitDx=0;exitDy=0;" edge="1" parent="1" source="yySmz_rd_nI9GgxJzsuN-39" target="yySmz_rd_nI9GgxJzsuN-39">
          <mxGeometry width="50" height="50" relative="1" as="geometry">
            <mxPoint x="790" y="463" as="sourcePoint" />
            <mxPoint x="790" y="423" as="targetPoint" />
          </mxGeometry>
        </mxCell>
        <mxCell id="yySmz_rd_nI9GgxJzsuN-47" value="+" style="text;html=1;align=center;verticalAlign=middle;whiteSpace=wrap;rounded=0;" vertex="1" parent="1">
          <mxGeometry x="780" y="423" width="20" height="20" as="geometry" />
        </mxCell>
        <mxCell id="yySmz_rd_nI9GgxJzsuN-48" value="-" style="text;html=1;align=center;verticalAlign=middle;whiteSpace=wrap;rounded=0;" vertex="1" parent="1">
          <mxGeometry x="740" y="383" width="20" height="20" as="geometry" />
        </mxCell>
        <mxCell id="yySmz_rd_nI9GgxJzsuN-74" style="edgeStyle=orthogonalEdgeStyle;rounded=0;orthogonalLoop=1;jettySize=auto;html=1;entryX=0;entryY=0.5;entryDx=0;entryDy=0;" edge="1" parent="1" source="yySmz_rd_nI9GgxJzsuN-53" target="yySmz_rd_nI9GgxJzsuN-19">
          <mxGeometry relative="1" as="geometry">
            <Array as="points">
              <mxPoint x="200" y="340" />
            </Array>
          </mxGeometry>
        </mxCell>
        <mxCell id="yySmz_rd_nI9GgxJzsuN-53" value="w&lt;sub&gt;0&lt;/sub&gt;(n)" style="triangle;whiteSpace=wrap;html=1;rotation=90;fillColor=#f5f5f5;fontColor=#333333;strokeColor=#666666;" vertex="1" parent="1">
          <mxGeometry x="170" y="225" width="60" height="50" as="geometry" />
        </mxCell>
        <mxCell id="yySmz_rd_nI9GgxJzsuN-54" value="" style="endArrow=classic;html=1;rounded=0;" edge="1" parent="1">
          <mxGeometry width="50" height="50" relative="1" as="geometry">
            <mxPoint x="330" y="270" as="sourcePoint" />
            <mxPoint x="395" y="210" as="targetPoint" />
          </mxGeometry>
        </mxCell>
        <mxCell id="yySmz_rd_nI9GgxJzsuN-66" style="edgeStyle=orthogonalEdgeStyle;rounded=0;orthogonalLoop=1;jettySize=auto;html=1;" edge="1" parent="1" source="yySmz_rd_nI9GgxJzsuN-55">
          <mxGeometry relative="1" as="geometry">
            <mxPoint x="360" y="320.0000000000001" as="targetPoint" />
          </mxGeometry>
        </mxCell>
        <mxCell id="yySmz_rd_nI9GgxJzsuN-55" value="w&lt;span style=&quot;font-size: 10px;&quot;&gt;&lt;sub&gt;1&lt;/sub&gt;&lt;/span&gt;(n)" style="triangle;whiteSpace=wrap;html=1;rotation=90;fillColor=#f5f5f5;fontColor=#333333;strokeColor=#666666;" vertex="1" parent="1">
          <mxGeometry x="330" y="225" width="60" height="50" as="geometry" />
        </mxCell>
        <mxCell id="yySmz_rd_nI9GgxJzsuN-56" value="" style="endArrow=classic;html=1;rounded=0;" edge="1" parent="1">
          <mxGeometry width="50" height="50" relative="1" as="geometry">
            <mxPoint x="730" y="270" as="sourcePoint" />
            <mxPoint x="795" y="210" as="targetPoint" />
          </mxGeometry>
        </mxCell>
        <mxCell id="yySmz_rd_nI9GgxJzsuN-65" style="edgeStyle=orthogonalEdgeStyle;rounded=0;orthogonalLoop=1;jettySize=auto;html=1;" edge="1" parent="1" source="yySmz_rd_nI9GgxJzsuN-57" target="yySmz_rd_nI9GgxJzsuN-62">
          <mxGeometry relative="1" as="geometry" />
        </mxCell>
        <mxCell id="yySmz_rd_nI9GgxJzsuN-57" value="w&lt;span style=&quot;font-size: 10px;&quot;&gt;&lt;sub&gt;N-1&lt;/sub&gt;&lt;/span&gt;(n)" style="triangle;whiteSpace=wrap;html=1;rotation=90;fillColor=#f5f5f5;fontColor=#333333;strokeColor=#666666;" vertex="1" parent="1">
          <mxGeometry x="730" y="225" width="60" height="50" as="geometry" />
        </mxCell>
        <mxCell id="yySmz_rd_nI9GgxJzsuN-70" style="edgeStyle=orthogonalEdgeStyle;rounded=0;orthogonalLoop=1;jettySize=auto;html=1;" edge="1" parent="1" source="yySmz_rd_nI9GgxJzsuN-62">
          <mxGeometry relative="1" as="geometry">
            <mxPoint x="860.6896551724138" y="340.0000000000001" as="targetPoint" />
          </mxGeometry>
        </mxCell>
        <mxCell id="yySmz_rd_nI9GgxJzsuN-71" value="y(n)" style="edgeLabel;html=1;align=center;verticalAlign=middle;resizable=0;points=[];" vertex="1" connectable="0" parent="yySmz_rd_nI9GgxJzsuN-70">
          <mxGeometry x="-0.1054" y="-1" relative="1" as="geometry">
            <mxPoint as="offset" />
          </mxGeometry>
        </mxCell>
        <mxCell id="yySmz_rd_nI9GgxJzsuN-73" style="edgeStyle=orthogonalEdgeStyle;rounded=0;orthogonalLoop=1;jettySize=auto;html=1;entryX=0.5;entryY=0;entryDx=0;entryDy=0;" edge="1" parent="1" source="yySmz_rd_nI9GgxJzsuN-62" target="yySmz_rd_nI9GgxJzsuN-39">
          <mxGeometry relative="1" as="geometry" />
        </mxCell>
        <mxCell id="yySmz_rd_nI9GgxJzsuN-62" value="" style="ellipse;whiteSpace=wrap;html=1;aspect=fixed;fillColor=#f5f5f5;fontColor=#333333;strokeColor=#666666;" vertex="1" parent="1">
          <mxGeometry x="740" y="320" width="40" height="40" as="geometry" />
        </mxCell>
        <mxCell id="yySmz_rd_nI9GgxJzsuN-63" value="" style="endArrow=none;html=1;rounded=0;entryX=0.5;entryY=0;entryDx=0;entryDy=0;" edge="1" parent="1" target="yySmz_rd_nI9GgxJzsuN-62">
          <mxGeometry width="50" height="50" relative="1" as="geometry">
            <mxPoint x="760" y="360" as="sourcePoint" />
            <mxPoint x="810" y="310" as="targetPoint" />
          </mxGeometry>
        </mxCell>
        <mxCell id="yySmz_rd_nI9GgxJzsuN-64" value="" style="endArrow=none;html=1;rounded=0;entryX=0;entryY=0.5;entryDx=0;entryDy=0;exitX=1;exitY=0.5;exitDx=0;exitDy=0;" edge="1" parent="1" source="yySmz_rd_nI9GgxJzsuN-62" target="yySmz_rd_nI9GgxJzsuN-62">
          <mxGeometry width="50" height="50" relative="1" as="geometry">
            <mxPoint x="790" y="380" as="sourcePoint" />
            <mxPoint x="790" y="340" as="targetPoint" />
          </mxGeometry>
        </mxCell>
        <mxCell id="yySmz_rd_nI9GgxJzsuN-75" value="" style="endArrow=classic;html=1;rounded=0;" edge="1" parent="1">
          <mxGeometry width="50" height="50" relative="1" as="geometry">
            <mxPoint x="490" y="270" as="sourcePoint" />
            <mxPoint x="555" y="210" as="targetPoint" />
          </mxGeometry>
        </mxCell>
        <mxCell id="yySmz_rd_nI9GgxJzsuN-82" style="edgeStyle=orthogonalEdgeStyle;rounded=0;orthogonalLoop=1;jettySize=auto;html=1;" edge="1" parent="1" source="yySmz_rd_nI9GgxJzsuN-76">
          <mxGeometry relative="1" as="geometry">
            <mxPoint x="520" y="320.0000000000001" as="targetPoint" />
          </mxGeometry>
        </mxCell>
        <mxCell id="yySmz_rd_nI9GgxJzsuN-76" value="w&lt;span style=&quot;font-size: 8.33333px;&quot;&gt;&lt;sub&gt;2&lt;/sub&gt;&lt;/span&gt;(n)" style="triangle;whiteSpace=wrap;html=1;rotation=90;fillColor=#f5f5f5;fontColor=#333333;strokeColor=#666666;" vertex="1" parent="1">
          <mxGeometry x="490" y="225" width="60" height="50" as="geometry" />
        </mxCell>
        <mxCell id="yySmz_rd_nI9GgxJzsuN-85" style="edgeStyle=orthogonalEdgeStyle;rounded=0;orthogonalLoop=1;jettySize=auto;html=1;dashed=1;dashPattern=8 8;" edge="1" parent="1" source="yySmz_rd_nI9GgxJzsuN-79">
          <mxGeometry relative="1" as="geometry">
            <mxPoint x="740" y="340.0000000000001" as="targetPoint" />
          </mxGeometry>
        </mxCell>
        <mxCell id="yySmz_rd_nI9GgxJzsuN-79" value="" style="ellipse;whiteSpace=wrap;html=1;aspect=fixed;fillColor=#f5f5f5;fontColor=#333333;strokeColor=#666666;" vertex="1" parent="1">
          <mxGeometry x="500" y="320" width="40" height="40" as="geometry" />
        </mxCell>
        <mxCell id="yySmz_rd_nI9GgxJzsuN-80" value="" style="endArrow=none;html=1;rounded=0;entryX=0.5;entryY=0;entryDx=0;entryDy=0;" edge="1" parent="1" target="yySmz_rd_nI9GgxJzsuN-79">
          <mxGeometry width="50" height="50" relative="1" as="geometry">
            <mxPoint x="520" y="360" as="sourcePoint" />
            <mxPoint x="570" y="310" as="targetPoint" />
          </mxGeometry>
        </mxCell>
        <mxCell id="yySmz_rd_nI9GgxJzsuN-81" value="" style="endArrow=none;html=1;rounded=0;entryX=0;entryY=0.5;entryDx=0;entryDy=0;exitX=1;exitY=0.5;exitDx=0;exitDy=0;" edge="1" parent="1" source="yySmz_rd_nI9GgxJzsuN-79" target="yySmz_rd_nI9GgxJzsuN-79">
          <mxGeometry width="50" height="50" relative="1" as="geometry">
            <mxPoint x="550" y="380" as="sourcePoint" />
            <mxPoint x="550" y="340" as="targetPoint" />
          </mxGeometry>
        </mxCell>
      </root>
    </mxGraphModel>
  </diagram>
</mxfile>
